<mxfile host="app.diagrams.net" modified="2023-11-09T08:18:04.016Z" agent="Mozilla/5.0 (Macintosh; Intel Mac OS X 10_15_7) AppleWebKit/537.36 (KHTML, like Gecko) Chrome/119.0.0.0 Safari/537.36" version="22.1.0" etag="o2L5EVtqQZ42kBedCawZ" type="github">
  <diagram name="第 1 页" id="uCTap5yYtHm1DO6tISXk">
    <mxGraphModel>
      <root>
        <mxCell id="0" />
        <mxCell id="1" parent="0" />
      </root>
    </mxGraphModel>
  </diagram>
</mxfile>
